<svg xmlns="http://www.w3.org/2000/svg" viewBox="0 0 219.792 219.792"><path d="M159.4 25.975c-.916 0-1.836.024-2.759.07C146.664 9.856 129.195 0 109.896 0c-19.3 0-36.769 9.856-46.744 26.045a54.291 54.291 0 00-2.76-.07c-30.306 0-54.961 24.656-54.961 54.962 0 25.355 17.397 47.182 41.432 53.264v78.092c0 4.143 3.357 7.5 7.5 7.5h111.066c4.143 0 7.5-3.357 7.5-7.5v-78.088c24.031-6.084 41.432-27.917 41.432-53.268 0-30.306-24.655-54.962-54.961-54.962zm-1.471 178.817H61.863v-14.136H157.931v14.136zm6.556-84.229a7.5 7.5 0 00-6.556 7.44v50.152h-14.388v-46.779a6.25 6.25 0 10-12.5 0v46.779h-14.896v-46.779a6.25 6.25 0 10-12.5 0v46.779H88.752v-46.779a6.25 6.25 0 10-12.5 0v46.779H61.863V128.73l.021-.255a7.5 7.5 0 00-6.547-7.912c-19.899-2.51-34.905-19.546-34.905-39.626 0-22.035 17.927-39.962 39.961-39.962 1.929 0 3.893.144 5.842.431a7.496 7.496 0 007.813-4.102C80.837 23.546 94.575 15 109.896 15c15.32 0 29.058 8.547 35.852 22.305a7.496 7.496 0 007.814 4.101 40.246 40.246 0 015.838-.431c22.034 0 39.961 17.927 39.961 39.962 0 20.068-14.993 37.103-34.876 39.626z"/></svg>