<svg xmlns="http://www.w3.org/2000/svg" width="512" height="512"><circle cx="256" cy="255.997" r="245" fill="#735542"/><path d="M254.758 334.635c-31.555 0-60.685-6.391-84.23-17.179v88.287a3.501 3.501 0 003.886 3.479c.011-.001 162.879-.035 163.141-.004a3.5 3.5 0 003.919-3.474v-88.553c-.91.146-1.821.285-2.742.396-23.502 10.713-52.541 17.048-83.974 17.048z" fill="#e9e9eb"/><path d="M341.044 169.298c-9.429-38.209-43.919-66.548-85.044-66.548-41.339 0-75.97 28.638-85.184 67.154-.4 1.673-.744 5.079-5.37 5.948-31.835 7.486-55.542 36.053-55.542 70.173 0 34.871 24.759 63.94 57.652 70.637.684.139 2.671.657 2.971.794 23.546 10.788 52.676 17.179 84.23 17.179 30.409 0 58.577-5.929 81.657-16.014.778-.34 4.148-1.285 5.058-1.43 34.36-5.504 60.623-35.253 60.623-71.166 0-34.003-23.544-62.492-55.217-70.097-2.665-.893-4.327-.946-5.834-6.63z" fill="#f8f8f8"/></svg>